<svg width="25" height="24" viewBox="0 0 25 24" fill="none" xmlns="http://www.w3.org/2000/svg">
<path d="M15.6773 5.17735C14.5936 6.26107 12.5378 5.96225 12.5378 5.96225C12.5378 5.96225 12.2389 3.90637 13.3227 2.82265C14.4064 1.73893 16.4622 2.03775 16.4622 2.03775C16.4622 2.03775 16.7611 4.09363 15.6773 5.17735Z" stroke="#E67E22" stroke-width="1.5" stroke-linejoin="round"/>
<path d="M4.5 14.0593C4.5 17.341 6.69645 21.1103 8.91889 21.9069C9.6894 22.183 10.4858 21.8019 11.1479 21.3274C11.6502 20.9674 12.2584 20.6236 12.7497 20.6236C13.2409 20.6236 13.8491 20.9674 14.3514 21.3274C15.0135 21.8019 15.8099 22.183 16.5804 21.9069C18.1597 21.3409 19.7258 19.2738 20.5 16.9473C19.0008 16.5179 17.9057 15.1614 17.9057 13.5544C17.9057 12.0821 18.8248 10.8201 20.1318 10.2886C19.2897 8.79309 17.9136 8 16.3589 8C15.5546 8 14.8154 8.32422 14.2183 8.71286C13.2653 9.33314 12.2341 9.33315 11.281 8.71286C10.6839 8.32422 9.94473 8 9.14044 8C6.57759 8 4.5 10.1551 4.5 14.0593Z" stroke="#E67E22" stroke-width="1.5" stroke-linejoin="round"/>
</svg>
