<svg width="25" height="24" viewBox="0 0 25 24" fill="none" xmlns="http://www.w3.org/2000/svg">
<path fill-rule="evenodd" clip-rule="evenodd" d="M6.68182 10.3333C5.70406 10.3333 5.5 10.5252 5.5 11.4444V13.1111C5.5 14.0304 5.70406 14.2222 6.68182 14.2222H9.04545V20.8889C9.04545 21.8081 9.24951 22 10.2273 22H12.5909C13.5687 22 13.7727 21.8081 13.7727 20.8889V14.2222H16.4267C17.1683 14.2222 17.3594 14.0867 17.5631 13.4164L18.0696 11.7497C18.4185 10.6014 18.2035 10.3333 16.9332 10.3333H13.7727V7.55556C13.7727 6.94191 14.3018 6.44444 14.9545 6.44444H18.3182C19.2959 6.44444 19.5 6.25259 19.5 5.33333V3.11111C19.5 2.19185 19.2959 2 18.3182 2H14.9545C11.691 2 9.04545 4.48731 9.04545 7.55556V10.3333H6.68182Z" stroke="#E67E22" stroke-width="1.5" stroke-linejoin="round"/>
</svg>
